<?xml version="1.0" encoding="utf-8"?>
<!-- Generator: Adobe Illustrator 15.0.0, SVG Export Plug-In . SVG Version: 6.00 Build 0)  -->
<!DOCTYPE svg PUBLIC "-//W3C//DTD SVG 1.1//EN" "http://www.w3.org/Graphics/SVG/1.1/DTD/svg11.dtd">
<svg version="1.1" id="Layer_1" xmlns="http://www.w3.org/2000/svg" xmlns:xlink="http://www.w3.org/1999/xlink" x="0px" y="0px"
	 width="360.001px" height="78.72px" viewBox="0 0 360.001 78.72" enable-background="new 0 0 360.001 78.72" xml:space="preserve">
<g id="KAREN_J._ELLIOTT">
	<path fill="#3A83F1" d="M19.595,63.576h0.546v0.42h-9.198v-0.42h0.546c0.728,0,1.351-0.259,1.869-0.777
		c0.518-0.518,0.791-1.141,0.819-1.869V37.62c-0.028-0.728-0.301-1.344-0.819-1.848c-0.519-0.504-1.141-0.756-1.869-0.756h-0.546
		v-0.42h9.198v0.42h-0.546c-0.729,0-1.351,0.252-1.869,0.756c-0.519,0.504-0.792,1.12-0.819,1.848v23.31
		c0,0.729,0.266,1.352,0.798,1.869C18.236,63.317,18.866,63.576,19.595,63.576z M36.479,63.996h-1.806
		c-2.856,0-4.956-0.798-6.3-2.395L18.251,49.38l9.912-12.432c0.224-0.28,0.336-0.532,0.336-0.756c0-0.224-0.042-0.42-0.126-0.588
		c-0.225-0.42-0.63-0.63-1.218-0.63h-0.42v-0.378h8.862v0.378h-0.168c-1.848,0-3.36,0.658-4.536,1.974l-9.87,11.424l11.466,13.481
		c1.12,1.121,2.45,1.695,3.99,1.723V63.996z"/>
	<path fill="#3A83F1" d="M64.073,63.576h0.336v0.42h-8.61v-0.42h0.336c0.531,0,0.938-0.182,1.218-0.546
		c0.28-0.364,0.42-0.707,0.42-1.029c0-0.321-0.056-0.636-0.168-0.944l-2.31-5.586H44.668l-2.31,5.459
		c-0.14,0.365-0.21,0.708-0.21,1.029c0,0.322,0.14,0.672,0.42,1.051c0.28,0.377,0.7,0.566,1.26,0.566h0.336v0.42h-8.022v-0.42h0.336
		c0.588,0,1.183-0.203,1.785-0.609c0.602-0.405,1.099-1.014,1.491-1.826c6.132-13.104,9.324-19.965,9.576-20.58
		c0.476-1.176,0.728-1.96,0.756-2.353h0.378l10.374,22.933C61.65,62.764,62.729,63.576,64.073,63.576z M45.214,54.21h9.576
		l-4.704-11.508L45.214,54.21z"/>
	<path fill="#3A83F1" d="M74.698,40.098h-2.226v21.211c0.027,0.867,0.42,1.525,1.176,1.974c0.364,0.196,0.77,0.294,1.218,0.294
		h0.546l0.042,0.42h-8.61v-0.42h0.588c0.644,0,1.197-0.217,1.659-0.65c0.462-0.435,0.693-0.959,0.693-1.576V41.4
		c0-0.615-0.231-1.135-0.693-1.555s-1.015-0.629-1.659-0.629h-0.588v-0.421h10.542c2.631,0,4.71,0.603,6.237,1.806
		c1.526,1.205,2.289,2.787,2.289,4.746c0,1.961-0.616,3.599-1.848,4.914c-1.232,1.316-2.8,2.072-4.704,2.269
		c0.896,0.392,1.974,1.484,3.234,3.276c-0.028,0,0.455,0.615,1.449,1.848c0.994,1.232,1.792,2.191,2.394,2.877
		c0.602,0.687,1.099,1.211,1.491,1.574c1.036,0.98,2.226,1.471,3.57,1.471v0.42h-1.302c-2.212,0-3.948-0.434-5.208-1.302
		c-0.952-0.644-1.82-1.442-2.604-2.394c-0.168-0.225-0.875-1.211-2.121-2.962c-1.246-1.749-1.911-2.681-1.995-2.793
		c-1.512-1.876-2.926-2.813-4.242-2.813v-0.42c3.276,0,5.25-0.168,5.922-0.504c0.924-0.477,1.554-0.98,1.89-1.513
		c0.699-1.119,1.05-2.352,1.05-3.696c0-1.707-0.504-3.023-1.512-3.947c-1.008-0.924-2.366-1.428-4.074-1.512
		C76.546,40.112,75.678,40.098,74.698,40.098z"/>
	<path fill="#3A83F1" d="M94.102,63.576c0.672,0,1.239-0.217,1.701-0.65c0.462-0.435,0.707-0.959,0.735-1.576V41.4
		c0-0.615-0.238-1.135-0.714-1.555c-0.477-0.42-1.05-0.629-1.722-0.629h-0.588v-0.421h12.264c1.147,0,2.156-0.084,3.024-0.252
		c0.867-0.168,1.428-0.308,1.68-0.42v4.788l-0.462-0.042v-0.63c0-0.588-0.196-1.092-0.588-1.512
		c-0.393-0.42-0.896-0.631-1.512-0.631h-8.736v10.668h7.182c0.56,0,0.987-0.168,1.281-0.504s0.441-0.756,0.441-1.26v-0.546h0.462
		v5.88h-0.462V53.79c0-0.784-0.294-1.315-0.882-1.596c-0.225-0.085-0.462-0.14-0.714-0.169h-7.308v10.669h6.594
		c1.287,0,2.373-0.224,3.255-0.673c0.882-0.447,1.554-0.979,2.016-1.596c0.462-0.615,0.93-1.428,1.407-2.436h0.42l-2.31,6.006
		H93.514v-0.42H94.102z"/>
	<path fill="#3A83F1" d="M145.006,39.217c-0.616,0-1.148,0.203-1.596,0.608c-0.448,0.406-0.687,0.903-0.715,1.491v17.892
		c0,1.624,0.099,3.165,0.294,4.62l0.084,0.756h-0.378l-21.84-20.706v17.515c0,0.615,0.224,1.133,0.672,1.554
		c0.448,0.42,0.994,0.63,1.639,0.63h0.714v0.42h-7.938v-0.42h0.714c0.644,0,1.19-0.21,1.638-0.63
		c0.448-0.421,0.672-0.938,0.672-1.554V43.416c0-1.707-0.099-3.234-0.294-4.578l-0.084-0.672l0.462,0.042l21.798,20.538v-17.43
		c-0.057-0.588-0.309-1.085-0.756-1.491c-0.448-0.405-0.98-0.608-1.596-0.608h-0.715v-0.421h7.938v0.421H145.006z"/>
	<path fill="#3A83F1" d="M169.533,35.016c-1.008,0-1.778,0.435-2.31,1.302c-0.225,0.393-0.351,0.84-0.378,1.344v26.334
		c0,2.352-0.735,4.34-2.205,5.964c-1.471,1.624-3.283,2.437-5.439,2.437v-0.379c1.372-0.477,2.534-1.505,3.486-3.086
		c0.951-1.583,1.428-3.27,1.428-5.062V37.662c-0.028-0.728-0.301-1.351-0.819-1.869c-0.518-0.518-1.141-0.777-1.868-0.777h-0.547
		v-0.42h9.198v0.42H169.533z"/>
	<path fill="#3A83F1" d="M177.428,63.618c-0.364,0.364-0.813,0.546-1.344,0.546c-0.532,0-0.98-0.182-1.345-0.546
		c-0.363-0.364-0.546-0.812-0.546-1.345c0-0.531,0.183-0.979,0.546-1.344c0.364-0.363,0.813-0.545,1.345-0.545
		c0.531,0,0.979,0.182,1.344,0.545c0.363,0.365,0.546,0.813,0.546,1.344C177.974,62.807,177.792,63.254,177.428,63.618z"/>
	<path fill="#3A83F1" d="M194.061,63.576c0.729,0,1.352-0.259,1.869-0.777c0.518-0.518,0.791-1.141,0.818-1.869V37.41
		c-0.084-0.672-0.377-1.239-0.881-1.701s-1.107-0.693-1.807-0.693h-0.504l-0.043-0.42h12.307c0.867,0,1.813-0.084,2.836-0.252
		c1.021-0.168,1.742-0.336,2.162-0.504v5.292h-0.42v-0.757c0-0.672-0.23-1.246-0.693-1.722c-0.461-0.476-1.016-0.728-1.658-0.756
		h-8.568v12.978h7.098c0.561-0.027,1.035-0.237,1.428-0.63c0.393-0.392,0.588-0.882,0.588-1.471v-0.588h0.42v6.637h-0.42v-0.63
		c0-0.56-0.188-1.036-0.566-1.429c-0.377-0.391-0.848-0.602-1.406-0.629h-7.141v12.558h6.006c2.072,0,3.654-0.462,4.746-1.386
		s2.002-2.296,2.73-4.117h0.42l-2.436,6.805h-17.432v-0.42H194.061z"/>
	<path fill="#3A83F1" d="M218.252,63.576c0.672,0,1.238-0.217,1.701-0.65c0.461-0.435,0.707-0.959,0.734-1.576V41.484
		c-0.027-0.615-0.287-1.148-0.777-1.596c-0.49-0.448-1.07-0.672-1.742-0.672h-0.504v-0.421h8.693v0.421h-0.504
		c-0.672,0-1.254,0.224-1.742,0.672c-0.49,0.447-0.734,0.98-0.734,1.596v21.21h6.551c1.287,0,2.379-0.224,3.275-0.673
		c0.896-0.447,1.576-0.979,2.037-1.596c0.463-0.615,0.918-1.428,1.365-2.436h0.42l-2.309,6.006h-17.053v-0.42H218.252z"/>
	<path fill="#3A83F1" d="M240.094,63.576c0.672,0,1.238-0.217,1.699-0.65c0.463-0.435,0.707-0.959,0.736-1.576V41.484
		c-0.029-0.615-0.287-1.148-0.777-1.596c-0.49-0.448-1.07-0.672-1.742-0.672h-0.506v-0.421h8.695v0.421h-0.504
		c-0.672,0-1.254,0.224-1.744,0.672c-0.49,0.447-0.734,0.98-0.734,1.596v21.21h6.553c1.287,0,2.379-0.224,3.275-0.673
		c0.896-0.447,1.574-0.979,2.037-1.596c0.461-0.615,0.916-1.428,1.365-2.436h0.42l-2.311,6.006h-17.053v-0.42H240.094z"/>
	<path fill="#3A83F1" d="M261.934,63.576c0.756,0,1.412-0.224,1.973-0.672c0.561-0.447,0.84-0.98,0.84-1.596V41.484
		c0-0.615-0.279-1.148-0.84-1.596c-0.561-0.448-1.232-0.672-2.016-0.672h-0.547v-0.421h9.492v0.421h-0.545
		c-0.756,0-1.408,0.209-1.953,0.629c-0.547,0.42-0.848,0.939-0.902,1.555V61.35c0.027,0.617,0.32,1.142,0.881,1.576
		c0.561,0.434,1.219,0.65,1.975,0.65h0.545l0.043,0.42h-9.535v-0.42H261.934z"/>
	<path fill="#3A83F1" d="M282.01,39.867c2.154-1.106,4.527-1.659,7.119-1.659c2.588,0,4.961,0.553,7.117,1.659
		c2.156,1.106,3.871,2.667,5.146,4.684c1.273,2.016,1.91,4.298,1.91,6.846s-0.637,4.83-1.91,6.846
		c-1.275,2.016-2.99,3.577-5.146,4.684c-2.156,1.105-4.367,1.658-6.635,1.658s-4.271-0.322-6.006-0.966
		c-1.736-0.644-3.242-1.54-4.516-2.688c-1.273-1.147-2.283-2.547-3.023-4.199c-0.742-1.652-1.113-3.592-1.113-5.817
		s0.637-4.347,1.91-6.362C278.139,42.534,279.854,40.974,282.01,39.867z M281.232,59.984c2.113,2.227,4.738,3.34,7.875,3.34
		c3.135,0,5.768-1.113,7.896-3.34c2.127-2.225,3.191-5.088,3.191-8.588s-1.064-6.363-3.191-8.59
		c-2.129-2.226-4.762-3.338-7.896-3.338c-3.137,0-5.762,1.112-7.875,3.338c-2.115,2.227-3.172,5.09-3.172,8.59
		S279.117,57.76,281.232,59.984z"/>
	<path fill="#3A83F1" d="M317.961,40.014V61.35c0.027,0.869,0.447,1.513,1.26,1.933c0.363,0.196,0.77,0.294,1.219,0.294h0.461v0.42
		h-8.652v-0.42h0.506c0.672,0,1.244-0.224,1.721-0.672c0.477-0.447,0.729-0.98,0.756-1.596V40.014h-7.602
		c-0.645,0-1.154,0.211-1.533,0.631c-0.377,0.42-0.566,0.924-0.566,1.512v0.672h-0.463v-4.746c0.561,0.225,1.352,0.393,2.373,0.504
		c1.021,0.112,1.785,0.168,2.289,0.168h13.693c2.016,0,3.582-0.224,4.703-0.672v4.746h-0.463v-0.672
		c0-0.588-0.195-1.092-0.588-1.512s-0.896-0.631-1.512-0.631H317.961z"/>
	<path fill="#3A83F1" d="M343.203,40.014V61.35c0.027,0.869,0.447,1.513,1.26,1.933c0.363,0.196,0.77,0.294,1.217,0.294h0.463v0.42
		h-8.652v-0.42h0.504c0.672,0,1.246-0.224,1.723-0.672c0.475-0.447,0.727-0.98,0.756-1.596V40.014h-7.602
		c-0.645,0-1.156,0.211-1.533,0.631c-0.379,0.42-0.568,0.924-0.568,1.512v0.672h-0.461v-4.746c0.559,0.225,1.35,0.393,2.373,0.504
		c1.021,0.112,1.785,0.168,2.289,0.168h13.691c2.016,0,3.584-0.224,4.705-0.672v4.746h-0.463v-0.672
		c0-0.588-0.197-1.092-0.588-1.512c-0.393-0.42-0.896-0.631-1.512-0.631H343.203z"/>
</g>
<g id="THE_LAW_OFFICE_OF">
	<path d="M29.104,12.915v13.716c0.018,0.558,0.288,0.972,0.81,1.242c0.234,0.126,0.495,0.189,0.783,0.189h0.297v0.27h-5.562v-0.27
		h0.324c0.432,0,0.8-0.144,1.107-0.432c0.306-0.288,0.468-0.63,0.486-1.026V12.915h-4.887c-0.414,0-0.742,0.135-0.985,0.405
		c-0.243,0.27-0.364,0.594-0.364,0.972v0.432h-0.297v-3.051c0.36,0.145,0.869,0.252,1.526,0.324
		c0.657,0.072,1.147,0.108,1.471,0.108h8.802c1.296,0,2.304-0.144,3.024-0.432v3.051h-0.297v-0.432c0-0.378-0.126-0.702-0.378-0.972
		c-0.252-0.27-0.577-0.405-0.972-0.405H29.104z"/>
	<path d="M53.701,28.062c0.414,0,0.774-0.139,1.08-0.418c0.306-0.279,0.468-0.616,0.486-1.013v-5.886h-9.963v5.886
		c0.018,0.396,0.18,0.734,0.486,1.013c0.306,0.279,0.666,0.418,1.08,0.418h0.324v0.27h-5.508v-0.27h0.324
		c0.432,0,0.796-0.144,1.093-0.432c0.297-0.288,0.455-0.63,0.473-1.026V13.86c-0.018-0.396-0.18-0.738-0.486-1.026
		c-0.307-0.288-0.667-0.432-1.08-0.432h-0.324v-0.27h5.508v0.27H46.87c-0.414,0-0.774,0.14-1.08,0.418
		c-0.306,0.279-0.468,0.617-0.486,1.013v6.102h9.963V13.86c0-0.396-0.117-0.702-0.351-0.918c-0.378-0.36-0.783-0.54-1.215-0.54
		h-0.324v-0.27h5.508v0.27h-0.324c-0.414,0-0.774,0.135-1.08,0.405s-0.468,0.603-0.486,0.999v12.825
		c0.018,0.396,0.135,0.693,0.351,0.891c0.396,0.36,0.801,0.54,1.215,0.54h0.324v0.27h-5.508v-0.27H53.701z"/>
	<path d="M66.391,28.062c0.432,0,0.797-0.139,1.094-0.418c0.297-0.279,0.454-0.616,0.473-1.013V13.806
		c0-0.396-0.153-0.729-0.459-0.999c-0.307-0.27-0.675-0.405-1.107-0.405h-0.378v-0.27h7.884c0.738,0,1.386-0.054,1.944-0.162
		c0.558-0.108,0.918-0.198,1.08-0.27v3.078l-0.297-0.027v-0.405c0-0.378-0.126-0.702-0.378-0.972s-0.576-0.405-0.972-0.405h-5.616
		v6.858h4.617c0.36,0,0.634-0.108,0.823-0.324c0.189-0.216,0.284-0.486,0.284-0.81v-0.351h0.297v3.78h-0.297v-0.351
		c0-0.504-0.189-0.846-0.567-1.026c-0.145-0.054-0.297-0.09-0.459-0.108h-4.698v6.858h4.239c0.828,0,1.525-0.144,2.092-0.432
		c0.567-0.288,0.999-0.63,1.296-1.026c0.297-0.396,0.599-0.918,0.905-1.566h0.27l-1.485,3.861H66.013v-0.27H66.391z"/>
	<path d="M96.252,28.062c0.432,0,0.797-0.139,1.094-0.418c0.297-0.279,0.454-0.616,0.473-1.013V13.86
		c-0.019-0.396-0.185-0.738-0.5-1.026c-0.315-0.288-0.688-0.432-1.121-0.432h-0.324v-0.27h5.589v0.27h-0.324
		c-0.432,0-0.806,0.145-1.121,0.432c-0.315,0.288-0.472,0.63-0.472,1.026v13.635h4.212c0.828,0,1.53-0.144,2.106-0.432
		c0.576-0.288,1.012-0.63,1.31-1.026c0.297-0.396,0.589-0.918,0.877-1.566h0.27l-1.485,3.861H95.875v-0.27H96.252z"/>
	<path d="M130.866,28.062h0.216v0.27h-5.535v-0.27h0.216c0.342,0,0.603-0.117,0.783-0.351c0.18-0.233,0.27-0.454,0.27-0.662
		c0-0.207-0.036-0.409-0.108-0.607l-1.485-3.591h-6.831l-1.485,3.51c-0.09,0.234-0.135,0.455-0.135,0.662
		c0,0.207,0.09,0.432,0.27,0.675c0.18,0.243,0.45,0.364,0.81,0.364h0.216v0.27h-5.157v-0.27h0.216c0.378,0,0.76-0.13,1.147-0.392
		c0.387-0.261,0.706-0.652,0.958-1.174c3.942-8.424,5.994-12.834,6.156-13.23c0.306-0.756,0.468-1.26,0.486-1.512h0.243
		l6.669,14.742C129.309,27.54,130.002,28.062,130.866,28.062z M118.743,22.041h6.156l-3.024-7.398L118.743,22.041z"/>
	<path d="M157.11,12.402h-0.189c-1.08,0-1.818,0.531-2.214,1.593l-3.915,11.664c-0.396,1.134-0.604,2.133-0.621,2.997h-0.27
		l-5.022-12.852l-3.51,9.855c-0.36,1.116-0.559,2.115-0.594,2.997h-0.243l-5.67-14.769c-0.414-0.99-1.134-1.485-2.16-1.485h-0.216
		v-0.27h5.562v0.27h-0.216c-0.324,0-0.571,0.099-0.742,0.297c-0.172,0.198-0.257,0.396-0.257,0.594c0,0.198,0.027,0.387,0.081,0.567
		l3.591,10.989l4.563-13.149l0.27,0.027l4.833,12.312l3.024-10.017c0.09-0.252,0.135-0.477,0.135-0.675
		c0-0.198-0.072-0.405-0.216-0.621c-0.145-0.216-0.388-0.324-0.729-0.324h-0.216v-0.27h4.941V12.402z"/>
	<path d="M177.98,12.82c1.386-0.71,2.911-1.066,4.577-1.066c1.664,0,3.189,0.356,4.576,1.066c1.386,0.711,2.488,1.715,3.308,3.011
		c0.818,1.296,1.229,2.763,1.229,4.401c0,1.638-0.41,3.105-1.229,4.401c-0.819,1.296-1.922,2.3-3.308,3.011
		c-1.387,0.711-2.808,1.066-4.266,1.066s-2.745-0.207-3.861-0.621c-1.116-0.414-2.084-0.99-2.902-1.728
		c-0.819-0.738-1.468-1.638-1.944-2.7c-0.478-1.062-0.716-2.309-0.716-3.74c0-1.431,0.409-2.794,1.229-4.09
		S176.595,13.532,177.98,12.82z M177.481,25.753c1.358,1.431,3.046,2.146,5.063,2.146c2.016,0,3.708-0.715,5.076-2.146
		c1.367-1.431,2.052-3.271,2.052-5.521c0-2.25-0.685-4.09-2.052-5.521c-1.368-1.431-3.061-2.146-5.076-2.146
		c-2.017,0-3.704,0.715-5.063,2.146c-1.359,1.431-2.039,3.271-2.039,5.521C175.442,22.482,176.122,24.323,177.481,25.753z"/>
	<path d="M208.977,14.346c0-0.612-0.262-1.035-0.783-1.269c-0.18-0.072-0.369-0.108-0.567-0.108h-5.696v6.858h4.698
		c0.359,0,0.629-0.108,0.81-0.324c0.18-0.216,0.27-0.486,0.27-0.81v-0.351h0.324v3.78h-0.324v-0.351
		c0-0.432-0.144-0.747-0.432-0.945c-0.162-0.108-0.36-0.171-0.594-0.189h-4.752v5.967c0.018,0.486,0.233,0.882,0.647,1.188
		c0.271,0.18,0.585,0.27,0.945,0.27h0.378v0.27h-5.643v-0.27h0.378c0.432,0,0.801-0.139,1.106-0.418
		c0.306-0.279,0.468-0.616,0.486-1.013V13.806c-0.019-0.558-0.279-0.963-0.783-1.215c-0.252-0.125-0.522-0.189-0.81-0.189h-0.378
		v-0.27h3.672h4.293c0.521,0,1.098-0.044,1.728-0.135c0.63-0.09,1.071-0.189,1.323-0.297v3.078l-0.297-0.027V14.346z"/>
	<path d="M227.283,14.346c0-0.612-0.262-1.035-0.783-1.269c-0.18-0.072-0.369-0.108-0.567-0.108h-5.696v6.858h4.698
		c0.359,0,0.629-0.108,0.81-0.324c0.18-0.216,0.27-0.486,0.27-0.81v-0.351h0.324v3.78h-0.324v-0.351
		c0-0.432-0.144-0.747-0.432-0.945c-0.162-0.108-0.36-0.171-0.594-0.189h-4.752v5.967c0.018,0.486,0.233,0.882,0.647,1.188
		c0.271,0.18,0.585,0.27,0.945,0.27h0.378v0.27h-5.643v-0.27h0.378c0.432,0,0.801-0.139,1.106-0.418
		c0.306-0.279,0.468-0.616,0.486-1.013V13.806c-0.019-0.558-0.279-0.963-0.783-1.215c-0.252-0.125-0.522-0.189-0.81-0.189h-0.378
		v-0.27h3.672h4.293c0.521,0,1.098-0.044,1.728-0.135c0.63-0.09,1.071-0.189,1.323-0.297v3.078l-0.297-0.027V14.346z"/>
	<path d="M235.248,28.062c0.485,0,0.908-0.144,1.269-0.432c0.36-0.288,0.54-0.63,0.54-1.026V13.86c0-0.396-0.18-0.738-0.54-1.026
		c-0.36-0.288-0.792-0.432-1.296-0.432h-0.351v-0.27h6.102v0.27h-0.351c-0.486,0-0.905,0.135-1.256,0.405s-0.545,0.603-0.58,0.999
		v12.825c0.018,0.396,0.206,0.734,0.566,1.013c0.36,0.279,0.783,0.418,1.27,0.418h0.351l0.027,0.27h-6.129v-0.27H235.248z"/>
	<path d="M249.976,26.415c-1.593-1.512-2.39-3.578-2.39-6.196c0-2.619,0.797-4.685,2.39-6.197c1.593-1.512,3.767-2.268,6.521-2.268
		c1.116,0,2.241,0.145,3.375,0.432c1.134,0.288,2.115,0.684,2.943,1.188l0.594,3.834h-0.243c-0.773-3.096-3.006-4.644-6.695-4.644
		c-2.143,0-3.834,0.685-5.076,2.052c-1.242,1.368-1.863,3.24-1.863,5.616c0,1.548,0.279,2.894,0.837,4.037s1.368,2.03,2.43,2.66
		c1.063,0.63,2.296,0.945,3.699,0.945c1.404,0,2.633-0.211,3.686-0.634s1.926-1.121,2.619-2.093
		c0.692-0.972,1.084-2.178,1.175-3.618h0.243l-0.298,3.699c-0.701,1.08-1.719,1.931-3.051,2.551
		c-1.332,0.621-2.79,0.932-4.374,0.932C253.742,28.692,251.568,27.927,249.976,26.415z"/>
	<path d="M271.319,28.062c0.432,0,0.796-0.139,1.093-0.418c0.298-0.279,0.455-0.616,0.473-1.013V13.806
		c0-0.396-0.153-0.729-0.459-0.999s-0.675-0.405-1.106-0.405h-0.378v-0.27h7.884c0.737,0,1.386-0.054,1.944-0.162
		c0.558-0.108,0.918-0.198,1.079-0.27v3.078l-0.297-0.027v-0.405c0-0.378-0.126-0.702-0.378-0.972s-0.576-0.405-0.972-0.405h-5.616
		v6.858h4.617c0.359,0,0.635-0.108,0.823-0.324c0.189-0.216,0.283-0.486,0.283-0.81v-0.351h0.298v3.78h-0.298v-0.351
		c0-0.504-0.188-0.846-0.566-1.026c-0.145-0.054-0.297-0.09-0.459-0.108h-4.698v6.858h4.239c0.827,0,1.525-0.144,2.093-0.432
		c0.566-0.288,0.999-0.63,1.296-1.026s0.598-0.918,0.904-1.566h0.27l-1.484,3.861h-10.962v-0.27H271.319z"/>
	<path d="M305.204,12.82c1.386-0.71,2.911-1.066,4.577-1.066c1.664,0,3.189,0.356,4.576,1.066c1.386,0.711,2.488,1.715,3.308,3.011
		c0.818,1.296,1.229,2.763,1.229,4.401c0,1.638-0.41,3.105-1.229,4.401c-0.819,1.296-1.922,2.3-3.308,3.011
		c-1.387,0.711-2.808,1.066-4.266,1.066s-2.745-0.207-3.861-0.621c-1.116-0.414-2.084-0.99-2.902-1.728
		c-0.819-0.738-1.468-1.638-1.944-2.7c-0.478-1.062-0.716-2.309-0.716-3.74c0-1.431,0.409-2.794,1.229-4.09
		S303.818,13.532,305.204,12.82z M304.705,25.753c1.358,1.431,3.046,2.146,5.063,2.146c2.016,0,3.708-0.715,5.076-2.146
		c1.367-1.431,2.052-3.271,2.052-5.521c0-2.25-0.685-4.09-2.052-5.521c-1.368-1.431-3.061-2.146-5.076-2.146
		c-2.017,0-3.704,0.715-5.063,2.146c-1.359,1.431-2.039,3.271-2.039,5.521C302.666,22.482,303.346,24.323,304.705,25.753z"/>
	<path d="M336.199,14.346c0-0.612-0.262-1.035-0.783-1.269c-0.18-0.072-0.369-0.108-0.567-0.108h-5.696v6.858h4.698
		c0.359,0,0.629-0.108,0.81-0.324c0.18-0.216,0.27-0.486,0.27-0.81v-0.351h0.324v3.78h-0.324v-0.351
		c0-0.432-0.144-0.747-0.432-0.945c-0.162-0.108-0.36-0.171-0.594-0.189h-4.752v5.967c0.018,0.486,0.233,0.882,0.647,1.188
		c0.271,0.18,0.585,0.27,0.945,0.27h0.378v0.27h-5.643v-0.27h0.378c0.432,0,0.801-0.139,1.106-0.418
		c0.306-0.279,0.468-0.616,0.486-1.013V13.806c-0.019-0.558-0.279-0.963-0.783-1.215c-0.252-0.125-0.522-0.189-0.81-0.189h-0.378
		v-0.27h3.672h4.293c0.521,0,1.098-0.044,1.728-0.135c0.63-0.09,1.071-0.189,1.323-0.297v3.078l-0.297-0.027V14.346z"/>
</g>
</svg>
